{"title":"RoboCop (1987) (Director's Cut) [mini-HD.1080p.AAC] [Lektor PL]","uid":9540833,"size":1723958975,"categoryP":"video","categoryS":"hd___movies","magnet":"?xt=urn:btih:6cefbd5f571343fc323429a22c86dad225dc50ef&amp;dn=RoboCop+%281987%29+%28Director%27s+Cut%29+%5Bmini-HD.1080p.AAC%5D+%5BLektor+PL%5D&amp;tr=udp%3A%2F%2Ftracker.openbittorrent.com%3A80&amp;tr=udp%3A%2F%2Fopen.demonii.com%3A1337&amp;tr=udp%3A%2F%2Ftracker.coppersurfer.tk%3A6969&amp;tr=udp%3A%2F%2Fexodus.desync.com%3A6969","seeders":4,"leechers":0,"uploader":"gixer1000k9","files":-1,"time":1391038436,"description":"Detroit - in the future - is crime-ridden, and run by a massive company. The company have developed a huge crime-fighting robot, which unfortunately develops a rather dangerous glitch. The company sees a way to get back in favour with the public when a cop called Alex Murphy is killed by a street gang. Murphy's body is reconstructed within a steel shell and named Robocop. The Robocop is very successful against criminals, and becomes a target of supervillian Boddicker.\n\n &lt;a href=&quot;\nhttp://i.imgur.com/SHqCkDL.jpg&quot; rel=&quot;nofollow&quot; target=&quot;_NEW&quot;&gt;\nhttp://i.imgur.com/SHqCkDL.jpg&lt;/a&gt;\n &lt;a href=&quot;\nhttp://i.imgur.com/D3Yzn6G.jpg&quot; rel=&quot;nofollow&quot; target=&quot;_NEW&quot;&gt;\nhttp://i.imgur.com/D3Yzn6G.jpg&lt;/a&gt;\n &lt;a href=&quot;\nhttp://i.imgur.com/EiDM8Kn.jpg&quot; rel=&quot;nofollow&quot; target=&quot;_NEW&quot;&gt;\nhttp://i.imgur.com/EiDM8Kn.jpg&lt;/a&gt;\n &lt;a href=&quot;\nhttp://i.imgur.com/QyWwrwn.jpg&quot; rel=&quot;nofollow&quot; target=&quot;_NEW&quot;&gt;\nhttp://i.imgur.com/QyWwrwn.jpg&lt;/a&gt;\n &lt;a href=&quot;\nhttp://i.imgur.com/eVUNoFc.jpg&quot; rel=&quot;nofollow&quot; target=&quot;_NEW&quot;&gt;\nhttp://i.imgur.com/eVUNoFc.jpg&lt;/a&gt;\n\n\nTechnical Data:\n\n Format : MPEG-4\n Format profile : Base Media\n Codec ID : isom\n File size : 1.61 GiB\n Duration : 1h 43mn\n Overall bit rate : 2 226 Kbps\n Movie name : RoboCop (1987) (Remastered Director's Cut) (mini-HD) (gixerk9)\n Writing application : Lavf55.23.103\n\n Video\n ID : 1\n Format : AVC\n Format/Info : Advanced Video Codec\n Format profile : &lt;a class=&quot;__cf_email__&quot; href=&quot;/cdn-cgi/l/email-protection&quot; data-cfemail=&quot;a7eac6cec9e7eb938996&quot;&gt;[email&amp;#160;protected]&lt;/a&gt;&lt;script cf-hash='f9e31' type=&quot;text/javascript&quot;&gt;\n/* &lt;![CDATA[ */!function(){try{var t=&quot;currentScript&quot;in document?document.currentScript:function(){for(var t=document.getElementsByTagName(&quot;script&quot;),e=t.length;e--;)if(t[e].getAttribute(&quot;cf-hash&quot;))return t[e]}();if(t&amp;&amp;t.previousSibling){var e,r,n,i,c=t.previousSibling,a=c.getAttribute(&quot;data-cfemail&quot;);if(a){for(e=&quot;&quot;,r=parseInt(a.substr(0,2),16),n=2;a.length-n;n+=2)i=parseInt(a.substr(n,2),16)^r,e+=String.fromCharCode(i);e=document.createTextNode(e),c.parentNode.replaceChild(e,c)}}}catch(u){}}();/* ]]&gt; */&lt;/script&gt;\n Format settings, CABAC : Yes\n Format settings, ReFrames : 2 frames\n Codec ID : avc1\n Codec ID/Info : Advanced Video Coding\n Duration : 1h 43mn\n Bit rate : 2 172 Kbps\n Width : 1 920 pixels\n Height : 1 080 pixels\n Display aspect ratio : 16:9\n Frame rate mode : Constant\n Frame rate : 23.976 fps\n Color space : YUV\n Chroma subsampling : 4:2:0\n Bit depth : 8 bits\n Scan type : Progressive\n Bits/(Pixel*Frame) : 0.044\n Stream size : 1.51 GiB (94%)\n Writing library : x264 core 140 r2345\n\n\n Audio\n ID : 2\n Format : AAC\n Format/Info : Advanced Audio Codec\n Format profile : LC\n Codec ID : 40\n Duration : 1h 43mn\n Bit rate mode : Constant\n Bit rate : 128 Kbps\n Channel count : 2 channels\n Channel positions : Front: L R\n Sampling rate : 48.0 KHz\n Compression mode : Lossy\n Delay relative to video : 42ms\n Stream size : 94.5 MiB (6%)\n Language : Polish","torrent":{"xt":"urn:btih:6cefbd5f571343fc323429a22c86dad225dc50ef","amp;dn":"RoboCop+%281987%29+%28Director%27s+Cut%29+%5Bmini-HD.1080p.AAC%5D+%5BLektor+PL%5D","amp;tr":["udp%3A%2F%2Ftracker.openbittorrent.com%3A80","udp%3A%2F%2Fopen.demonii.com%3A1337","udp%3A%2F%2Ftracker.coppersurfer.tk%3A6969","udp%3A%2F%2Fexodus.desync.com%3A6969"],"infoHash":"6cefbd5f571343fc323429a22c86dad225dc50ef","infoHashBuffer":{"type":"Buffer","data":[108,239,189,95,87,19,67,252,50,52,41,162,44,134,218,210,37,220,80,239]},"announce":[],"urlList":[]}}